<?xml version="1.0" encoding="utf-8"?>
<!-- Generator: Adobe Illustrator 19.1.0, SVG Export Plug-In . SVG Version: 6.00 Build 0)  -->
<svg version="1.0" id="Layer_1" xmlns="http://www.w3.org/2000/svg" xmlns:xlink="http://www.w3.org/1999/xlink" x="0px" y="0px"
	 viewBox="0 0 31 29.2" style="enable-background:new 0 0 31 29.2;" xml:space="preserve">
<style type="text/css">
	.st0{fill-rule:evenodd;clip-rule:evenodd;fill:#ffffff;}
	.st1{fill:#ffffff;}
</style>
<path class="st0" d="M29.8,0l-5,0c0,0,0,0,0,0c-0.6,0-1.1,0.4-1.2,1l-1.3,5.9c0,0.1-0.1,0.2-0.3,0.2H1.3c-1.3,0-1.4,0.6-1.3,1.3
	l2.6,11c0.2,1,0.6,1.2,1.3,1.2h16.7c0.9,0,1.2-0.6,1.3-1l3.8-16.9c0-0.1,0.1-0.2,0.2-0.2l3.8,0c0,0,0,0,0,0C30.5,2.6,31,2,31,1.3
	C31,0.6,30.5,0,29.8,0z"/>
<circle class="st1" cx="7" cy="26.7" r="2.6"/>
<circle class="st1" cx="18.9" cy="26.7" r="2.6"/>
</svg>
